<svg xmlns="http://www.w3.org/2000/svg" viewBox="0 0 128 128">
  <rect x="0" y="0" width="128" height="128" rx="20" fill="#3b82f6"/>
  <rect x="20" y="40" width="88" height="48" rx="4" fill="#ffffff" opacity="0.9"/>
  <rect x="28" y="48" width="12" height="10" rx="2" fill="#3b82f6" opacity="0.5"/>
  <rect x="44" y="48" width="12" height="10" rx="2" fill="#3b82f6" opacity="0.5"/>
  <rect x="60" y="48" width="12" height="10" rx="2" fill="#3b82f6" opacity="0.5"/>
  <rect x="76" y="48" width="12" height="10" rx="2" fill="#3b82f6" opacity="0.5"/>
  <rect x="28" y="62" width="12" height="10" rx="2" fill="#3b82f6" opacity="0.5"/>
  <rect x="44" y="62" width="12" height="10" rx="2" fill="#3b82f6" opacity="0.5"/>
  <rect x="60" y="62" width="12" height="10" rx="2" fill="#3b82f6" opacity="0.5"/>
  <rect x="76" y="62" width="12" height="10" rx="2" fill="#3b82f6" opacity="0.5"/>
  
  <path d="M10 90 Q 30 80 50 95 T 90 90" stroke="white" stroke-width="4" fill="none" opacity="0.8"/>
  <path d="M-5 105 Q 20 95 45 105 T 95 100" stroke="white" stroke-width="4" fill="none" opacity="0.6"/>
</svg>
